C:\Users\movea\Dropbox\PhDWork\ExperimentalData\subject2\100\P2S100W03_filtered35.mot
nRows=15
nColumns=28

name C:\Users\movea\Dropbox\PhDWork\ExperimentalData\subject2\100\P2S100W03_filtered35.mot
datacolumns 28
datarows 15
range 0.6650000000 0.6790000000
endheader
time	ground_force_1_vx	ground_force_1_vy	ground_force_1_vz	ground_force_1_px	ground_force_1_py	ground_force_1_pz	ground_moment_1_mx	ground_moment_1_my	ground_moment_1_mz	ground_force_2_vx	ground_force_2_vy	ground_force_2_vz	ground_force_2_px	ground_force_2_py	ground_force_2_pz	ground_moment_2_mx	ground_moment_2_my	ground_moment_2_mz	ground_force_3_vx	ground_force_3_vy	ground_force_3_vz	ground_force_3_px	ground_force_3_py	ground_force_3_pz	ground_moment_3_mx	ground_moment_3_my	ground_moment_3_mz
        0.6650000000	       12.4719392965	      520.2756927133	       28.4450866105	        0.1988394961	        0.0000558755	       -0.3004071324	      -54.2970121428	        6.9323920382	      -39.3838289994	       -0.0000000000	        0.0000000001	        0.0000000000	        0.2029003516	       -0.0000795827	        0.4543649445	        0.0000000000	       -0.0000000000	        0.0000000000	       -0.0000000000	        0.0000000000	        0.0000000000	        0.2076431971	        0.0000770316	        1.3583900146	        0.0000000000	        0.0000000000	       -0.0000000000	
        0.6660000000	       12.8004420375	      522.5359511710	       28.9253632630	        0.1988394961	        0.0000558755	       -0.3004071324	      -54.7819192994	        7.0264075407	      -39.5974231970	       -0.0000000000	        0.0000000002	        0.0000000001	        0.2029003516	       -0.0000795827	        0.4543649445	        0.0000000000	       -0.0000000000	        0.0000000000	       -0.0000000000	        0.0000000000	        0.0000000000	        0.2076431971	        0.0000770316	        1.3583900146	        0.0000000000	        0.0000000000	       -0.0000000000	
        0.6670000000	       13.1323059604	      524.8029686468	       29.3896164387	        0.1988394961	        0.0000558755	       -0.3004071324	      -55.2730197040	        7.1214572062	      -39.8132202641	       -0.0000000000	        0.0000000003	        0.0000000001	        0.2029003516	       -0.0000795827	        0.4543649445	        0.0000000000	       -0.0000000000	        0.0000000000	       -0.0000000000	        0.0000000000	       -0.0000000000	        0.2076431971	        0.0000770316	        1.3583900146	       -0.0000000000	       -0.0000000000	        0.0000000000	
        0.6680000000	       13.4662482398	      527.0755591640	       29.8368239663	        0.1988394961	        0.0000558755	       -0.3004071324	      -55.7691678410	        7.2177297652	      -40.0313878815	       -0.0000000000	        0.0000000004	        0.0000000002	        0.2029003516	       -0.0000795827	        0.4543649445	        0.0000000000	       -0.0000000000	        0.0000000000	       -0.0000000000	        0.0000000000	       -0.0000000000	        0.2076431971	        0.0000770316	        1.3583900146	       -0.0000000000	       -0.0000000000	        0.0000000000	
        0.6690000000	       13.8012210527	      529.3518480442	       30.2673125396	        0.1988394961	        0.0000558755	       -0.3004071324	      -56.2696311443	        7.3152962013	      -40.2521891253	       -0.0000000000	        0.0000000006	        0.0000000002	        0.2029003516	       -0.0000795827	        0.4543649445	        0.0000000000	       -0.0000000000	        0.0000000000	       -0.0000000000	        0.0000000000	       -0.0000000000	        0.2076431971	        0.0000770316	        1.3583900146	       -0.0000000000	       -0.0000000000	        0.0000000000	
        0.6700000000	       14.1365239541	      531.6286565000	       30.6829474448	        0.1988394961	        0.0000558755	       -0.3004071324	      -56.7742999808	        7.4140138425	      -40.4761986496	       -0.0000000000	        0.0000000007	        0.0000000003	        0.2029003516	       -0.0000795827	        0.4543649445	        0.0000000000	       -0.0000000000	        0.0000000000	       -0.0000000000	        0.0000000000	       -0.0000000000	        0.2076431971	        0.0000770316	        1.3583900146	       -0.0000000000	       -0.0000000000	        0.0000000000	
        0.6710000000	       14.4720318244	      533.9015078323	       31.0866112154	        0.1988394961	        0.0000558755	       -0.3004071324	      -57.2833436587	        7.5136862281	      -40.7040872046	       -0.0000000000	        0.0000000009	        0.0000000004	        0.2029003516	       -0.0000795827	        0.4543649445	        0.0000000000	       -0.0000000000	        0.0000000000	       -0.0000000000	        0.0000000000	       -0.0000000000	        0.2076431971	        0.0000770316	        1.3583900146	       -0.0000000000	       -0.0000000000	        0.0000000000	
        0.6720000000	       14.8083199230	      536.1666800714	       31.4812838061	        0.1988394961	        0.0000558755	       -0.3004071324	      -57.7969202640	        7.6142366114	      -40.9362727837	       -0.0000000000	        0.0000000011	        0.0000000005	        0.2029003516	       -0.0000795827	        0.4543649445	        0.0000000000	       -0.0000000000	        0.0000000001	       -0.0000000000	        0.0000000000	       -0.0000000000	        0.2076431971	        0.0000770316	        1.3583900146	       -0.0000000000	       -0.0000000000	        0.0000000000	
        0.6730000000	       15.1463730118	      538.4231512358	       31.8693224126	        0.1988394961	        0.0000558755	       -0.3004071324	      -58.3151643866	        7.7156938235	      -41.1727258926	       -0.0000000000	        0.0000000012	        0.0000000005	        0.2029003516	       -0.0000795827	        0.4543649445	        0.0000000000	       -0.0000000000	        0.0000000001	       -0.0000000000	        0.0000000000	       -0.0000000000	        0.2076431971	        0.0000770316	        1.3583900146	       -0.0000000000	       -0.0000000000	        0.0000000000	
        0.6740000000	       15.4869743518	      540.6718958817	       32.2521505854	        0.1988394961	        0.0000558755	       -0.3004071324	      -58.8381972150	        7.8180516644	      -41.4129157824	        0.0000000000	        0.0000000014	        0.0000000006	        0.2029003516	       -0.0000795827	        0.4543649445	        0.0000000000	       -0.0000000000	        0.0000000001	       -0.0000000000	        0.0000000000	       -0.0000000000	        0.2076431971	        0.0000770316	        1.3583900146	       -0.0000000000	       -0.0000000000	        0.0000000000	
        0.6750000000	       15.8307234866	      542.9143316122	       32.6303062979	        0.1988394961	        0.0000558755	       -0.3004071324	      -59.3661264849	        7.9211768823	      -41.6558981722	        0.0000000000	        0.0000000014	        0.0000000006	        0.2029003516	       -0.0000795827	        0.4543649445	        0.0000000000	       -0.0000000000	        0.0000000001	       -0.0000000000	        0.0000000000	       -0.0000000000	        0.2076431971	        0.0000770316	        1.3583900146	       -0.0000000000	       -0.0000000000	        0.0000000000	
        0.6760000000	       16.1787410927	      545.1518325002	       33.0039361114	        0.1988394961	        0.0000558755	       -0.3004071324	      -59.8991945647	        8.0248466244	      -41.9005084125	        0.0000000001	        0.0000000013	        0.0000000006	        0.2029003516	       -0.0000795827	        0.4543649445	        0.0000000000	       -0.0000000000	        0.0000000000	       -0.0000000000	        0.0000000000	       -0.0000000000	        0.2076431971	        0.0000770316	        1.3583900146	       -0.0000000000	       -0.0000000000	        0.0000000000	
        0.6770000000	       16.5325903285	      547.3856623049	       33.3732893815	        0.1988394961	        0.0000558755	       -0.3004071324	      -60.4378817276	        8.1288422308	      -42.1455011837	        0.0000000002	        0.0000000011	        0.0000000005	        0.2029003516	       -0.0000795827	        0.4543649445	        0.0000000000	       -0.0000000000	        0.0000000000	       -0.0000000000	        0.0000000000	       -0.0000000000	        0.2076431971	        0.0000770316	        1.3583900146	       -0.0000000000	       -0.0000000000	        0.0000000000	
        0.6780000000	       16.8931834704	      549.6169358482	       33.7387299645	        0.1988394961	        0.0000558755	       -0.3004071324	      -60.9828514830	        8.2329525535	      -42.3896563004	        0.0000000002	        0.0000000006	        0.0000000004	        0.2029003516	       -0.0000795827	        0.4543649445	       -0.0000000000	       -0.0000000000	       -0.0000000000	       -0.0000000000	        0.0000000000	       -0.0000000000	        0.2076431971	        0.0000770316	        1.3583900146	       -0.0000000000	       -0.0000000000	        0.0000000000	
        0.6790000000	       17.2601966175	      551.8464744780	       34.1006089885	        0.1988394961	        0.0000558755	       -0.3004071324	      -61.5350702275	        8.3369079782	      -42.6319825363	        0.0000000003	        0.0000000000	        0.0000000001	        0.2029003516	       -0.0000795827	        0.4543649445	       -0.0000000000	       -0.0000000000	       -0.0000000000	       -0.0000000000	        0.0000000000	       -0.0000000000	        0.2076431971	        0.0000770316	        1.3583900146	       -0.0000000000	       -0.0000000000	        0.0000000000	
